<svg xmlns="http://www.w3.org/2000/svg" viewBox="0 0 34.91 34.91"><g id="圖層_2" data-name="圖層 2"><g id="圖層_1-2" data-name="圖層 1"><path d="M17.46,0c-4.74,0-5.34,0-7.2.11A12.49,12.49,0,0,0,6,.92a8.45,8.45,0,0,0-3.09,2A8.45,8.45,0,0,0,.92,6a12.49,12.49,0,0,0-.81,4.24C0,12.12,0,12.71,0,17.45s0,5.34.11,7.2a12.74,12.74,0,0,0,.81,4.24A8.9,8.9,0,0,0,6,34a12.74,12.74,0,0,0,4.24.81c1.86.09,2.45.11,7.19.11s5.34,0,7.2-.11A12.74,12.74,0,0,0,28.89,34,8.53,8.53,0,0,0,32,32a8.66,8.66,0,0,0,2-3.09,13,13,0,0,0,.81-4.24c.09-1.86.11-2.46.11-7.2s0-5.33-.11-7.19A13,13,0,0,0,34,6a8.58,8.58,0,0,0-2-3.09,8.45,8.45,0,0,0-3.09-2A12.59,12.59,0,0,0,24.65.11C22.78,0,22.19,0,17.45,0ZM15.89,3.15h1.57c4.66,0,5.21,0,7.05.1a9.48,9.48,0,0,1,3.24.6,5.33,5.33,0,0,1,2,1.3,5.39,5.39,0,0,1,1.31,2,9.67,9.67,0,0,1,.6,3.24c.09,1.84.1,2.39.1,7s0,5.21-.1,7.05a9.67,9.67,0,0,1-.6,3.24,5.78,5.78,0,0,1-3.31,3.31,9.48,9.48,0,0,1-3.24.6c-1.84.09-2.39.11-7,.11s-5.22,0-7.06-.11a9.73,9.73,0,0,1-3.24-.6,5.71,5.71,0,0,1-3.31-3.31,9.42,9.42,0,0,1-.6-3.24c-.09-1.84-.1-2.39-.1-7s0-5.21.1-7a9.49,9.49,0,0,1,.6-3.25,5.33,5.33,0,0,1,1.3-2,5.6,5.6,0,0,1,2-1.31,9.73,9.73,0,0,1,3.24-.6c1.61-.07,2.24-.1,5.49-.1ZM26.77,6a2.1,2.1,0,1,0,2.1,2.1A2.1,2.1,0,0,0,26.77,6ZM17.46,8.49a9,9,0,1,0,9,9,9,9,0,0,0-9-9Zm0,3.15a5.82,5.82,0,1,1-5.82,5.81A5.81,5.81,0,0,1,17.46,11.64Z"/></g></g></svg>